<svg id="svg" xmlns="http://www.w3.org/2000/svg" xmlns:xlink="http://www.w3.org/1999/xlink" viewBox="0, 0, 400,400"><g id="svgg"><path id="path0" d="M224.219 47.495 L 219.141 50.603 218.916 57.738 L 218.691 64.874 225.748 74.133 C 237.724 89.847,246.409 97.906,279.297 123.821 C 294.237 135.594,303.233 144.573,304.938 149.415 C 306.938 155.092,281.787 167.132,269.874 166.199 C 257.452 165.227,250.048 158.027,246.895 143.851 C 243.731 129.628,240.273 129.318,232.661 142.578 C 220.077 164.497,214.182 170.432,190.883 184.633 L 177.848 192.578 175.257 200.347 C 172.206 209.494,172.088 209.302,180.859 209.472 C 184.297 209.538,197.305 209.807,209.766 210.070 L 232.422 210.547 226.563 213.797 C 213.171 221.225,200.369 232.113,192.819 242.496 C 190.598 245.549,188.541 248.333,188.247 248.683 C 187.527 249.540,176.275 245.139,171.451 242.114 C 163.375 237.051,161.743 234.634,157.386 221.296 C 147.088 189.767,131.439 180.558,118.320 198.307 C 111.439 207.616,111.736 221.455,118.932 226.818 C 120.729 228.158,122.707 228.487,131.432 228.899 C 144.497 229.516,148.959 232.204,147.377 238.505 C 145.026 247.874,105.615 276.690,89.484 280.835 C 62.333 287.812,50.152 271.023,58.425 238.026 C 61.185 227.016,61.257 226.563,60.230 226.563 C 59.226 226.563,54.832 239.004,53.055 246.875 C 43.552 288.980,65.591 310.344,100.514 292.881 C 116.638 284.820,141.914 263.179,147.406 252.734 C 156.937 234.608,147.436 213.326,129.496 212.616 C 121.781 212.310,120.080 211.155,123.394 208.472 C 131.695 201.750,145.590 213.688,152.730 233.675 C 158.730 250.473,165.873 258.494,178.395 262.492 C 180.891 263.290,181.330 263.735,180.990 265.124 C 171.008 305.885,176.014 335.463,195.031 348.085 C 209.893 357.950,236.224 357.870,254.688 347.904 C 287.405 330.244,304.987 290.649,290.538 267.167 C 283.604 255.897,276.805 254.123,236.719 253.123 C 192.739 252.026,193.641 252.245,202.148 244.707 C 217.827 230.814,235.781 222.152,265.625 214.084 L 281.641 209.754 284.174 202.449 C 285.567 198.432,286.547 194.885,286.350 194.567 C 286.154 194.250,268.495 193.735,247.108 193.424 C 205.841 192.823,206.493 192.868,209.422 190.818 C 217.124 185.428,224.552 175.647,230.097 163.592 C 236.669 149.306,238.246 147.777,239.849 154.135 C 242.843 166.008,244.579 170.197,248.156 174.176 C 267.495 195.685,309.605 177.282,309.732 147.266 C 309.790 133.639,305.534 127.913,280.112 107.422 C 260.471 91.590,253.091 85.220,243.750 76.036 L 234.766 67.202 239.323 67.195 C 245.789 67.184,245.128 66.181,233.250 57.963 C 228.203 54.471,228.673 54.408,239.476 57.116 C 275.039 66.033,332.044 89.214,341.911 98.771 C 349.336 105.963,348.002 107.271,331.859 108.628 C 315.347 110.017,305.261 112.653,300.391 116.854 C 298.690 118.320,298.476 118.736,299.609 118.366 C 305.683 116.387,311.492 115.432,323.438 114.447 C 355.918 111.769,369.018 102.209,355.286 91.204 C 337.240 76.743,259.023 46.533,235.167 44.811 C 229.384 44.394,229.222 44.434,224.219 47.495 M291.992 53.572 C 289.150 55.114,289.224 55.286,293.555 57.178 C 312.488 65.447,319.272 68.466,335.812 75.979 C 354.878 84.640,360.303 86.089,360.265 82.509 C 360.254 81.545,297.714 52.336,295.741 52.375 C 294.861 52.392,293.174 52.931,291.992 53.572 M149.854 59.989 C 148.371 61.630,146.478 64.694,145.649 66.796 C 144.819 68.898,140.010 79.052,134.961 89.360 C 124.596 110.522,124.736 109.990,128.711 113.094 C 132.551 116.092,145.373 124.604,146.880 125.156 C 148.434 125.724,169.502 140.873,175.245 145.551 C 181.429 150.588,182.499 150.192,187.487 141.016 C 188.421 139.297,190.408 135.781,191.902 133.203 C 197.364 123.778,205.461 106.512,206.687 101.675 L 207.945 96.709 205.731 94.358 C 204.512 93.065,200.000 89.346,195.703 86.092 C 191.406 82.839,187.715 79.938,187.500 79.646 C 186.965 78.917,160.634 61.630,156.158 59.068 L 152.550 57.004 149.854 59.989 M114.144 146.912 C 98.989 150.880,87.648 159.765,61.840 187.891 C 43.435 207.948,37.753 212.109,28.768 212.109 C 15.582 212.109,13.588 199.410,22.593 172.792 C 28.194 156.238,28.635 151.673,23.702 161.328 C 8.339 191.396,9.321 216.216,26.186 224.143 C 36.458 228.972,44.275 225.004,61.153 206.394 C 85.937 179.066,92.883 172.741,104.294 167.113 C 117.707 160.498,128.414 161.541,133.625 169.972 C 135.698 173.327,136.804 173.102,138.018 169.078 C 143.081 152.298,132.190 142.186,114.144 146.912 M199.254 266.787 C 204.829 267.576,218.366 268.323,235.156 268.767 C 274.805 269.817,283.106 272.267,288.921 284.639 C 298.778 305.608,263.126 336.950,228.125 338.085 C 194.773 339.167,178.374 322.265,181.911 290.455 C 183.163 279.196,187.884 264.023,189.772 265.190 C 190.065 265.371,194.332 266.090,199.254 266.787 M216.702 274.414 C 215.856 275.381,214.752 277.051,214.250 278.125 C 213.748 279.199,210.688 285.662,207.450 292.487 C 200.031 308.123,199.852 306.634,209.961 313.390 C 214.580 316.478,220.973 320.968,224.167 323.369 C 227.361 325.770,230.745 328.262,231.686 328.906 C 232.628 329.551,234.344 330.749,235.500 331.568 C 238.290 333.547,238.907 332.886,245.617 320.725 C 258.183 297.950,258.271 298.307,236.328 283.318 C 219.931 272.118,219.059 271.722,216.702 274.414 " stroke="none" fill="#ffffff" fill-rule="evenodd"></path></g></svg>