<?xml version="1.0" standalone="no"?>
<!DOCTYPE svg PUBLIC "-//W3C//DTD SVG 20010904//EN"
 "http://www.w3.org/TR/2001/REC-SVG-20010904/DTD/svg10.dtd">
<svg version="1.0" xmlns="http://www.w3.org/2000/svg"
 width="705.000000pt" height="705.000000pt" viewBox="0 0 705.000000 705.000000"
 preserveAspectRatio="xMidYMid meet">
<metadata>
Created by potrace 1.14, written by Peter Selinger 2001-2017
</metadata>
<g transform="translate(0.000000,705.000000) scale(0.100000,-0.100000)"
fill="#000000" stroke="none">
<path d="M3175 7025 c-704 -71 -1355 -346 -1915 -809 -109 -90 -336 -317 -426
-426 -445 -537 -705 -1134 -800 -1835 -25 -185 -25 -675 0 -860 80 -591 277
-1104 603 -1575 518 -747 1312 -1268 2203 -1444 246 -49 383 -61 695 -60 309
0 425 11 675 60 944 186 1782 763 2294 1579 351 559 536 1204 536 1870 0 1115
-514 2143 -1407 2814 -520 390 -1123 624 -1771 686 -186 18 -507 18 -687 0z
m1205 -3505 l0 -2610 -50 0 -50 0 0 2610 0 2610 50 0 50 0 0 -2610z m464 2589
c42 -33 59 -77 60 -152 1 -61 -2 -71 -23 -88 -23 -19 -74 -25 -118 -13 -16 4
-23 14 -23 30 0 20 5 24 29 24 36 0 46 23 36 83 -14 82 -18 83 -88 32 -92 -68
-88 -66 -125 -36 l-32 28 59 42 c107 75 174 90 225 50z m456 -2589 l0 -2610
-50 0 -50 0 0 2610 0 2610 50 0 50 0 0 -2610z m-1575 2559 c20 -18 35 -40 35
-53 0 -27 -87 -176 -165 -282 -196 -266 -506 -565 -805 -778 -63 -45 -146
-101 -183 -125 -83 -52 -281 -151 -301 -151 -36 0 -59 64 -40 114 3 9 52 40
107 68 315 162 725 498 997 819 82 97 168 215 231 321 46 77 63 97 81 98 4 0
23 -14 43 -31z m323 -52 l72 -72 0 -387 c0 -380 0 -387 -21 -401 -30 -21 -52
-11 -109 48 l-50 54 0 88 c0 97 -7 113 -50 113 -20 0 -35 -11 -60 -47 -175
-247 -458 -534 -715 -727 -97 -73 -111 -93 -89 -124 13 -19 27 -20 331 -24
347 -5 406 -14 523 -73 175 -89 263 -319 247 -650 -11 -227 -68 -354 -189
-420 -48 -27 -61 -30 -148 -30 -84 0 -102 3 -153 28 -40 20 -68 43 -90 74 -41
58 -73 93 -86 93 -5 0 -43 -29 -84 -64 -41 -35 -114 -92 -161 -126 -73 -53
-86 -67 -86 -91 0 -18 7 -32 19 -39 13 -6 181 -10 478 -10 344 0 462 -3 471
-12 8 -8 12 -56 12 -150 0 -126 -2 -138 -19 -148 -12 -6 -113 -10 -258 -10
-523 0 -810 -63 -1069 -236 -240 -159 -399 -377 -449 -616 -16 -73 -13 -93 15
-108 29 -16 46 -3 117 89 239 309 381 425 561 462 96 20 96 19 100 -146 2 -86
-1 -142 -8 -150 -6 -7 -27 -16 -48 -20 -60 -11 -172 -70 -242 -128 -68 -56
-145 -144 -298 -339 -115 -148 -115 -145 -44 -220 189 -203 525 -305 837 -254
372 61 615 264 695 580 25 98 25 118 1 140 -17 16 -23 15 -107 -10 -78 -24
-106 -28 -234 -28 -142 -1 -146 0 -210 30 -79 37 -128 79 -168 142 -132 207
-43 519 176 620 170 77 410 9 527 -149 96 -131 130 -273 129 -549 0 -310 -52
-519 -177 -717 -165 -262 -496 -410 -871 -390 -311 16 -549 156 -709 415 -66
107 -78 111 -162 48 -312 -235 -708 -173 -856 134 -107 220 -88 476 53 709 44
73 46 87 17 136 -18 31 -21 47 -17 113 3 42 15 106 27 142 31 91 118 270 191
392 84 142 86 144 105 128 23 -19 18 -46 -19 -113 -48 -86 -92 -202 -106 -275
-14 -79 -1 -133 40 -164 51 -38 50 -48 -25 -149 -93 -126 -174 -320 -194 -461
-30 -215 56 -352 254 -404 147 -40 350 19 490 141 l50 43 1 158 c1 186 20 311
69 461 55 166 126 294 228 415 96 112 83 128 -104 128 -112 0 -141 3 -153 16
-13 12 -16 41 -16 152 0 75 4 142 8 148 4 7 63 33 132 59 155 58 416 184 535
260 148 93 273 193 409 328 132 131 151 142 192 112 17 -11 22 -29 27 -84 6
-77 21 -113 64 -152 55 -52 91 -64 188 -64 97 0 133 12 188 64 44 40 57 74 57
143 0 145 -105 255 -292 305 -56 15 -148 17 -773 20 -646 3 -711 5 -722 20 -9
12 -13 60 -13 153 0 118 2 139 18 152 9 8 78 45 152 83 368 184 617 362 896
640 225 223 373 410 535 673 40 64 79 125 87 135 27 31 55 20 130 -56z m882
-253 c36 -11 67 -29 94 -55 35 -36 38 -43 33 -80 -6 -48 -12 -55 -52 -63 -30
-7 -31 -6 -32 35 -2 48 -20 79 -57 99 -24 12 -39 12 -117 -1 l-90 -15 -19 30
c-10 17 -17 32 -15 34 5 5 145 30 176 31 14 1 50 -6 79 -15z m-81 -200 c40
-33 66 -117 56 -180 -8 -58 -35 -76 -107 -72 -50 3 -53 5 -56 31 -3 24 0 27
27 27 43 0 51 43 25 133 -8 26 -21 21 -96 -33 l-69 -50 -34 26 c-19 15 -35 27
-35 29 0 5 139 95 161 104 46 18 96 13 128 -15z m27 -341 c12 -7 24 -22 27
-33 5 -20 1 -20 -223 -20 -228 0 -228 0 -234 23 -13 51 -20 49 202 45 138 -2
214 -7 228 -15z m-885 -150 c119 -115 152 -199 114 -291 -18 -42 -192 -222
-215 -222 -23 0 -290 271 -290 295 0 26 268 295 294 295 10 0 54 -35 97 -77z
m850 16 c30 -16 52 -69 57 -141 6 -82 -2 -113 -34 -143 -24 -23 -25 -23 -5
-30 47 -15 14 -163 -39 -175 -68 -16 -142 34 -180 121 -16 39 -25 49 -44 49
-16 0 -26 7 -30 23 -12 47 -12 47 103 47 133 0 136 2 128 100 -3 39 -9 75 -13
81 -4 7 -26 8 -63 4 -55 -6 -56 -6 -74 25 -11 17 -17 33 -15 36 2 2 29 8 59
13 58 10 120 6 150 -10z m-277 -42 c17 -13 17 -15 2 -45 -19 -37 -17 -36 -51
-20 -28 13 -30 17 -13 53 12 28 35 32 62 12z m303 -648 l34 -21 -6 -67 c-4
-36 -11 -83 -15 -104 -5 -25 -3 -53 6 -84 17 -56 18 -113 3 -147 -22 -48 -60
-56 -257 -56 -178 0 -180 0 -186 23 -3 12 -6 27 -6 32 0 6 56 9 152 7 179 -3
201 4 206 59 l3 35 -39 -4 c-21 -2 -55 3 -74 11 -30 13 -37 13 -42 2 -3 -10
-14 -11 -41 -5 -20 5 -39 11 -42 13 -6 7 53 189 77 237 10 19 27 43 38 53 44
40 137 48 189 16z m71 -561 c55 -27 92 -119 92 -229 0 -108 -54 -157 -160
-145 -92 11 -130 24 -130 46 0 28 10 30 83 18 60 -10 69 -9 87 7 16 15 20 31
20 90 0 80 -25 178 -43 172 -7 -2 -14 -33 -18 -74 -3 -39 -11 -78 -18 -87 -31
-38 -135 -8 -210 59 -46 42 -53 78 -23 115 15 18 24 21 50 15 36 -7 36 -8 21
-34 -18 -28 -3 -67 36 -91 50 -31 65 -22 65 39 0 27 4 61 10 76 17 44 73 54
138 23z m-57 -572 c10 -4 19 -18 22 -32 l4 -24 -228 0 c-177 0 -229 3 -229 13
0 6 -3 23 -7 35 l-6 24 214 -4 c118 -2 221 -8 230 -12z m-58 -140 c42 -17 65
-53 79 -122 22 -111 -15 -158 -115 -147 -41 5 -47 9 -47 29 0 20 5 24 30 24
23 0 31 5 36 24 7 28 -13 136 -25 136 -5 0 -39 -22 -77 -50 -38 -27 -71 -50
-75 -50 -11 0 -59 41 -59 50 0 13 114 89 158 105 48 18 56 18 95 1z m10 -347
c36 -16 56 -68 68 -177 15 -135 5 -215 -31 -255 -27 -30 -32 -32 -92 -30 -81
2 -118 16 -118 44 0 20 3 21 55 15 51 -6 55 -5 72 21 33 50 16 324 -20 323 -7
-1 -31 -5 -55 -9 -40 -8 -43 -7 -62 24 -11 18 -20 35 -20 38 0 16 171 21 203
6z m200 -210 c12 -7 23 -13 25 -14 6 -6 -29 -65 -38 -65 -5 0 -20 5 -34 11
-24 11 -24 12 -8 45 17 37 23 39 55 23z m-191 -460 c28 -15 58 -86 58 -142 0
-65 -21 -111 -56 -125 -16 -6 -109 -12 -207 -15 l-179 -4 -9 24 c-5 13 -9 29
-9 34 0 5 69 9 164 9 136 0 167 3 180 16 18 18 21 79 6 119 -10 25 -12 26 -67
20 -57 -7 -58 -6 -75 23 -10 17 -18 32 -18 35 0 17 182 22 212 6z m182 -52
c15 -11 16 -17 5 -40 -14 -30 -18 -32 -53 -16 -24 11 -24 13 -10 40 16 32 31
36 58 16z m80 -30 c14 -10 15 -18 7 -40 -12 -30 -28 -34 -55 -14 -15 11 -16
17 -5 40 14 30 26 33 53 14z m-80 -68 c24 -11 24 -13 10 -40 -16 -32 -31 -36
-58 -16 -15 11 -16 17 -5 40 14 30 18 32 53 16z m-1712 -116 c71 -73 99 -108
107 -138 27 -97 9 -139 -107 -257 -53 -54 -103 -98 -111 -98 -24 0 -291 271
-291 295 0 24 267 295 290 295 9 0 59 -44 112 -97z m1643 -104 c78 -37 114
-95 101 -165 -6 -28 -14 -38 -41 -50 -19 -8 -37 -14 -40 -14 -3 0 -5 23 -5 51
0 55 -18 93 -57 122 -23 18 -28 18 -111 3 l-87 -17 -22 28 c-13 16 -23 31 -23
34 0 10 106 26 178 28 45 1 75 -5 107 -20z m-107 -239 c49 -30 69 -103 38
-145 -12 -17 -12 -23 0 -47 17 -33 18 -91 3 -121 -7 -12 -32 -43 -56 -69 -42
-46 -43 -48 -28 -72 9 -14 33 -37 52 -52 71 -54 92 -4 92 223 l1 163 33 -6
c17 -3 38 -7 45 -10 9 -2 12 -46 12 -176 0 -148 -3 -179 -19 -215 -11 -23 -29
-47 -42 -53 -28 -15 -93 -8 -142 15 -52 24 -122 89 -137 126 -13 30 -12 32 38
80 57 54 67 76 58 125 -5 26 -13 35 -34 40 -48 10 -52 13 -52 39 0 23 4 25 40
25 34 0 41 4 46 25 12 48 1 56 -68 49 -62 -6 -63 -6 -80 24 -23 39 -23 40 10
45 79 12 158 6 190 -13z"/>
<path d="M3544 2375 c-20 -20 -23 -29 -14 -45 17 -32 51 -44 126 -44 79 0 104
12 104 50 0 38 -52 64 -128 64 -54 0 -67 -4 -88 -25z"/>
<path d="M4700 4771 c0 -14 40 -100 49 -106 19 -11 41 27 41 71 l0 44 -45 0
c-25 0 -45 -4 -45 -9z"/>
<path d="M4735 4345 c-35 -34 -31 -49 17 -62 24 -6 44 -11 44 -10 1 1 5 23 9
50 7 46 7 47 -19 47 -15 0 -38 -11 -51 -25z"/>
<path d="M4685 4209 c-20 -38 -15 -54 23 -67 57 -20 98 42 54 81 -29 27 -59
21 -77 -14z"/>
</g>
</svg>
